name Walk5.mot
datacolumns 19
datarows 17
range 2.23400000 2.25000000
endheader

                time	   L_ground_force_vx	   L_ground_force_vy	   L_ground_force_vz	   L_ground_force_px	   L_ground_force_py	   L_ground_force_pz	   R_ground_force_vx	   R_ground_force_vy	   R_ground_force_vz	   R_ground_force_px	   R_ground_force_py	   R_ground_force_pz	   L_ground_torque_x	   L_ground_torque_y	   L_ground_torque_z	   R_ground_torque_x	   R_ground_torque_y	   R_ground_torque_z	
          2.23400000	         21.87020014	        650.32570222	         29.13766202	         -0.36185585	          0.00000000	         -0.02202469	          0.00000000	          0.00000000	          0.00000000	          0.00000000	          0.00000000	          0.00000000	          0.00000000	          0.54780290	          0.00000000	          0.00000000	          0.00000000	          0.00000000	
          2.23500000	         22.16095262	        650.97345345	         29.22195683	         -0.36151186	          0.00000000	         -0.02199244	          0.00000000	          0.00000000	          0.00000000	          0.00000000	          0.00000000	          0.00000000	          0.00000000	          0.56385187	          0.00000000	          0.00000000	          0.00000000	          0.00000000	
          2.23600000	         22.44591748	        651.70764860	         29.31788740	         -0.36120886	          0.00000000	         -0.02194331	          0.00000000	          0.00000000	          0.00000000	          0.00000000	          0.00000000	          0.00000000	          0.00000000	          0.58008920	          0.00000000	          0.00000000	          0.00000000	          0.00000000	
          2.23700000	         22.74072939	        652.48545464	         29.43019299	         -0.36095518	          0.00000000	         -0.02189864	          0.00000000	          0.00000000	          0.00000000	          0.00000000	          0.00000000	          0.00000000	          0.00000000	          0.58627715	          0.00000000	          0.00000000	          0.00000000	          0.00000000	
          2.23800000	         23.05560105	        653.24669977	         29.55693652	         -0.36072752	          0.00000000	         -0.02187616	          0.00000000	          0.00000000	          0.00000000	          0.00000000	          0.00000000	          0.00000000	          0.00000000	          0.57701333	          0.00000000	          0.00000000	          0.00000000	          0.00000000	
          2.23900000	         23.38957702	        653.94147782	         29.68422126	         -0.36048768	          0.00000000	         -0.02188948	          0.00000000	          0.00000000	          0.00000000	          0.00000000	          0.00000000	          0.00000000	          0.00000000	          0.55584559	          0.00000000	          0.00000000	          0.00000000	          0.00000000	
          2.24000000	         23.73719519	        654.55105510	         29.79511405	         -0.36020745	          0.00000000	         -0.02194334	          0.00000000	          0.00000000	          0.00000000	          0.00000000	          0.00000000	          0.00000000	          0.00000000	          0.53391758	          0.00000000	          0.00000000	          0.00000000	          0.00000000	
          2.24100000	         24.09262979	        655.08899434	         29.88232884	         -0.35987707	          0.00000000	         -0.02204145	          0.00000000	          0.00000000	          0.00000000	          0.00000000	          0.00000000	          0.00000000	          0.00000000	          0.52256809	          0.00000000	          0.00000000	          0.00000000	          0.00000000	
          2.24200000	         24.44602025	        655.58308609	         29.95353166	         -0.35949835	          0.00000000	         -0.02218446	          0.00000000	          0.00000000	          0.00000000	          0.00000000	          0.00000000	          0.00000000	          0.00000000	          0.52516880	          0.00000000	          0.00000000	          0.00000000	          0.00000000	
          2.24300000	         24.78285747	        656.07650583	         30.02559901	         -0.35908075	          0.00000000	         -0.02235310	          0.00000000	          0.00000000	          0.00000000	          0.00000000	          0.00000000	          0.00000000	          0.00000000	          0.53734262	          0.00000000	          0.00000000	          0.00000000	          0.00000000	
          2.24400000	         25.09275428	        656.63534686	         30.11102052	         -0.35864580	          0.00000000	         -0.02251375	          0.00000000	          0.00000000	          0.00000000	          0.00000000	          0.00000000	          0.00000000	          0.00000000	          0.55465638	          0.00000000	          0.00000000	          0.00000000	          0.00000000	
          2.24500000	         25.38167856	        657.30718741	         30.20902111	         -0.35822326	          0.00000000	         -0.02264468	          0.00000000	          0.00000000	          0.00000000	          0.00000000	          0.00000000	          0.00000000	          0.00000000	          0.57466844	          0.00000000	          0.00000000	          0.00000000	          0.00000000	
          2.24600000	         25.67162786	        658.06713665	         30.30985030	         -0.35783990	          0.00000000	         -0.02274252	          0.00000000	          0.00000000	          0.00000000	          0.00000000	          0.00000000	          0.00000000	          0.00000000	          0.59173681	          0.00000000	          0.00000000	          0.00000000	          0.00000000	
          2.24700000	         25.98128182	        658.82528874	         30.40571771	         -0.35751299	          0.00000000	         -0.02280844	          0.00000000	          0.00000000	          0.00000000	          0.00000000	          0.00000000	          0.00000000	          0.00000000	          0.59652752	          0.00000000	          0.00000000	          0.00000000	          0.00000000	
          2.24800000	         26.30812640	        659.49495849	         30.49612311	         -0.35723817	          0.00000000	         -0.02284129	          0.00000000	          0.00000000	          0.00000000	          0.00000000	          0.00000000	          0.00000000	          0.00000000	          0.58362712	          0.00000000	          0.00000000	          0.00000000	          0.00000000	
          2.24900000	         26.63571975	        660.05920813	         30.58399998	         -0.35698025	          0.00000000	         -0.02284372	          0.00000000	          0.00000000	          0.00000000	          0.00000000	          0.00000000	          0.00000000	          0.00000000	          0.55864781	          0.00000000	          0.00000000	          0.00000000	          0.00000000	
          2.25000000	         26.95774200	        660.56665732	         30.67162257	         -0.35669388	          0.00000000	         -0.02282964	          0.00000000	          0.00000000	          0.00000000	          0.00000000	          0.00000000	          0.00000000	          0.00000000	          0.53558655	          0.00000000	          0.00000000	          0.00000000	          0.00000000	
